<svg data-v-423bf9ae="" xmlns="http://www.w3.org/2000/svg" viewBox="0 0 593.9337657359307 60" class="font"><!----><!----><!----><g data-v-423bf9ae="" id="d5799fde-f352-45ea-b827-3ceb71784c39" fill="white" transform="matrix(5.097706247069396,0,0,5.097706247069396,-0.8666065542631713,-9.991503961880916)"><path d="M11.27 2.80L11.41 5.88L10.81 5.88Q10.77 5.19 10.61 4.74Q10.44 4.28 10.15 4.01Q9.86 3.74 9.44 3.63Q9.02 3.53 8.46 3.53L8.46 3.53Q7.91 3.53 7.58 3.55Q7.25 3.57 7.08 3.62Q6.90 3.67 6.85 3.75Q6.79 3.84 6.79 3.96L6.79 3.96L6.79 11.30Q6.79 11.75 6.85 12.07Q6.92 12.39 7.11 12.59Q7.31 12.80 7.69 12.90Q8.06 13.01 8.68 13.02L8.68 13.02L8.68 13.58L2.81 13.58L2.81 13.02Q3.44 13.01 3.82 12.90Q4.20 12.80 4.40 12.59Q4.61 12.39 4.67 12.07Q4.73 11.75 4.73 11.30L4.73 11.30L4.73 3.96Q4.73 3.84 4.68 3.75Q4.63 3.67 4.48 3.62Q4.33 3.57 4.04 3.55Q3.75 3.53 3.29 3.53L3.29 3.53Q2.79 3.53 2.32 3.58Q1.86 3.63 1.51 3.86Q1.16 4.09 0.95 4.56Q0.73 5.03 0.71 5.88L0.71 5.88L0.17 5.88L0.31 2.80L11.27 2.80ZM14.76 10.74L14.76 11.41Q14.76 11.96 14.80 12.27Q14.85 12.59 15.01 12.75Q15.16 12.92 15.46 12.97Q15.75 13.02 16.24 13.02L16.24 13.02L16.24 13.58L11.56 13.58L11.56 13.02Q11.98 12.99 12.24 12.94Q12.49 12.88 12.61 12.71Q12.74 12.54 12.78 12.23Q12.81 11.91 12.81 11.38L12.81 11.38L12.81 9.67Q12.81 8.81 12.77 8.29Q12.73 7.77 12.59 7.49Q12.45 7.21 12.19 7.12Q11.93 7.03 11.51 7.03L11.51 7.03L11.51 6.54L14.31 6.02L14.53 7.63L14.59 7.63Q14.97 6.89 15.58 6.45Q16.20 6.02 16.88 6.02L16.88 6.02Q17.42 6.02 17.75 6.29Q18.09 6.55 18.09 6.96L18.09 6.96Q18.09 7.41 17.83 7.71Q17.57 8.02 17.12 8.02L17.12 8.02Q16.91 8.02 16.74 7.94Q16.58 7.85 16.44 7.75Q16.31 7.64 16.18 7.55Q16.04 7.46 15.90 7.46L15.90 7.46Q15.64 7.46 15.40 7.81Q15.16 8.16 15.01 8.75L15.01 8.75Q14.90 9.17 14.83 9.70Q14.76 10.22 14.76 10.74L14.76 10.74ZM25.20 11.79L25.59 12.28Q24.32 13.72 22.41 13.72L22.41 13.72Q21.55 13.72 20.84 13.45Q20.13 13.17 19.63 12.68Q19.12 12.18 18.84 11.49Q18.56 10.81 18.56 9.97L18.56 9.97Q18.56 9.10 18.86 8.38Q19.15 7.66 19.69 7.13Q20.23 6.61 20.96 6.31Q21.70 6.02 22.58 6.02L22.58 6.02Q24.07 6.02 24.89 6.82Q25.72 7.62 25.72 9.06L25.72 9.06Q25.72 9.28 25.65 9.33Q25.58 9.38 25.26 9.38L25.26 9.38L20.75 9.38Q20.69 9.51 20.69 9.84L20.69 9.84Q20.69 11.21 21.29 12.01Q21.88 12.81 22.90 12.81L22.90 12.81Q23.49 12.81 24.07 12.54Q24.65 12.28 25.20 11.79L25.20 11.79ZM20.85 8.60L22.88 8.60Q23.44 8.60 23.60 8.53Q23.76 8.47 23.76 8.23L23.76 8.23Q23.76 7.62 23.41 7.22Q23.06 6.83 22.53 6.83L22.53 6.83Q21.92 6.83 21.45 7.33Q20.99 7.83 20.85 8.60L20.85 8.60ZM29.65 13.72L27.44 7.97Q27.29 7.56 27.15 7.31Q27.01 7.07 26.86 6.94Q26.71 6.80 26.54 6.76Q26.36 6.72 26.12 6.72L26.12 6.72L26.12 6.16L30.31 6.16L30.31 6.72Q29.96 6.72 29.76 6.75Q29.55 6.78 29.45 6.83Q29.34 6.89 29.32 6.98Q29.29 7.07 29.29 7.18L29.29 7.18Q29.29 7.36 29.36 7.60Q29.43 7.84 29.53 8.08L29.53 8.08L30.86 11.75L30.91 11.75L32.41 8.09Q32.51 7.85 32.56 7.67Q32.62 7.48 32.62 7.32L32.62 7.32Q32.62 7.01 32.41 6.87Q32.20 6.73 31.67 6.72L31.67 6.72L31.67 6.16L34.76 6.16L34.76 6.72Q34.38 6.72 34.11 6.92Q33.84 7.11 33.54 7.78L33.54 7.78L30.93 13.72L29.65 13.72ZM39.06 6.02L39.06 6.02Q39.90 6.02 40.65 6.31Q41.40 6.59 41.97 7.10Q42.53 7.60 42.86 8.29Q43.19 8.99 43.19 9.81L43.19 9.81Q43.19 10.67 42.86 11.38Q42.53 12.10 41.97 12.61Q41.40 13.13 40.65 13.43Q39.90 13.72 39.06 13.72L39.06 13.72Q38.23 13.72 37.49 13.43Q36.75 13.15 36.19 12.63Q35.63 12.11 35.31 11.39Q34.99 10.67 34.99 9.81L34.99 9.81Q34.99 8.99 35.31 8.29Q35.63 7.59 36.19 7.08Q36.75 6.58 37.49 6.30Q38.23 6.02 39.06 6.02ZM39.06 6.83L39.06 6.83Q38.64 6.83 38.29 7.05Q37.94 7.27 37.70 7.66Q37.45 8.05 37.32 8.60Q37.18 9.16 37.18 9.83L37.18 9.83Q37.18 10.53 37.32 11.09Q37.45 11.65 37.70 12.04Q37.94 12.43 38.28 12.65Q38.63 12.87 39.06 12.87L39.06 12.87Q39.49 12.87 39.85 12.65Q40.21 12.43 40.46 12.03Q40.71 11.63 40.85 11.07Q40.99 10.51 40.99 9.83L40.99 9.83Q40.99 9.16 40.85 8.61Q40.71 8.06 40.46 7.67Q40.21 7.27 39.85 7.05Q39.49 6.83 39.06 6.83ZM50.22 9.91L50.22 8.46Q50.22 7.90 50.19 7.57Q50.16 7.24 50.04 7.06Q49.91 6.89 49.67 6.83Q49.42 6.76 49.00 6.72L49.00 6.72L49.00 6.16L52.16 6.16L52.16 10.40Q52.16 11.26 52.19 11.74Q52.21 12.22 52.26 12.46L52.26 12.46Q52.30 12.64 52.36 12.75Q52.42 12.85 52.54 12.91Q52.67 12.98 52.89 13.00Q53.10 13.02 53.45 13.02L53.45 13.02L53.45 13.57L50.67 13.73L50.51 12.49L50.46 12.49Q50.09 13.08 49.43 13.40Q48.78 13.72 47.96 13.72L47.96 13.72Q46.47 13.72 45.68 12.66L45.68 12.66Q45.08 11.84 45.08 10.35L45.08 10.35L45.08 8.46Q45.08 7.88 45.05 7.55Q45.02 7.22 44.91 7.06Q44.79 6.89 44.55 6.83Q44.31 6.76 43.89 6.72L43.89 6.72L43.89 6.16L47.03 6.16L47.03 10.12Q47.03 11.54 47.38 12.17Q47.73 12.81 48.50 12.81L48.50 12.81Q49.32 12.81 49.77 12.05L49.77 12.05Q50.22 11.33 50.22 9.91L50.22 9.91ZM57.25 10.74L57.25 11.41Q57.25 11.96 57.30 12.27Q57.34 12.59 57.50 12.75Q57.65 12.92 57.95 12.97Q58.24 13.02 58.73 13.02L58.73 13.02L58.73 13.58L54.05 13.58L54.05 13.02Q54.47 12.99 54.73 12.94Q54.98 12.88 55.10 12.71Q55.23 12.54 55.27 12.23Q55.30 11.91 55.30 11.38L55.30 11.38L55.30 9.67Q55.30 8.81 55.26 8.29Q55.22 7.77 55.08 7.49Q54.94 7.21 54.68 7.12Q54.42 7.03 54.00 7.03L54.00 7.03L54.00 6.54L56.80 6.02L57.02 7.63L57.08 7.63Q57.46 6.89 58.07 6.45Q58.69 6.02 59.37 6.02L59.37 6.02Q59.91 6.02 60.24 6.29Q60.58 6.55 60.58 6.96L60.58 6.96Q60.58 7.41 60.32 7.71Q60.06 8.02 59.61 8.02L59.61 8.02Q59.40 8.02 59.23 7.94Q59.07 7.85 58.93 7.75Q58.80 7.64 58.67 7.55Q58.53 7.46 58.39 7.46L58.39 7.46Q58.13 7.46 57.89 7.81Q57.65 8.16 57.50 8.75L57.50 8.75Q57.39 9.17 57.32 9.70Q57.25 10.22 57.25 10.74L57.25 10.74ZM72.16 10.96L72.21 10.96L75.45 2.80L79.53 2.80L79.53 3.36Q79.07 3.36 78.78 3.45Q78.50 3.54 78.34 3.78Q78.19 4.02 78.14 4.43Q78.09 4.84 78.09 5.47L78.09 5.47L78.09 10.91Q78.09 11.61 78.15 12.01Q78.20 12.42 78.37 12.64Q78.54 12.87 78.86 12.94Q79.17 13.01 79.69 13.02L79.69 13.02L79.69 13.58L74.42 13.58L74.42 13.02Q74.94 13.01 75.26 12.93Q75.57 12.85 75.75 12.64Q75.92 12.43 75.98 12.05Q76.03 11.66 76.03 11.00L76.03 11.00L76.03 4.45L75.96 4.45L72.20 13.72L71.16 13.72L67.27 4.45L67.21 4.45L67.21 10.91Q67.21 11.61 67.27 12.01Q67.33 12.42 67.49 12.64Q67.66 12.87 67.98 12.94Q68.29 13.01 68.81 13.02L68.81 13.02L68.81 13.58L64.50 13.58L64.50 13.02Q65.02 13.01 65.34 12.93Q65.66 12.85 65.84 12.64Q66.01 12.43 66.07 12.05Q66.12 11.66 66.12 11.00L66.12 11.00L66.12 5.38Q66.12 4.79 66.07 4.40Q66.01 4.00 65.86 3.77Q65.70 3.54 65.42 3.45Q65.13 3.36 64.65 3.36L64.65 3.36L64.65 2.80L68.89 2.80L72.16 10.96ZM84.38 6.02L84.38 6.02Q85.22 6.02 85.97 6.31Q86.72 6.59 87.28 7.10Q87.85 7.60 88.18 8.29Q88.51 8.99 88.51 9.81L88.51 9.81Q88.51 10.67 88.18 11.38Q87.85 12.10 87.28 12.61Q86.72 13.13 85.97 13.43Q85.22 13.72 84.38 13.72L84.38 13.72Q83.55 13.72 82.81 13.43Q82.07 13.15 81.51 12.63Q80.95 12.11 80.63 11.39Q80.30 10.67 80.30 9.81L80.30 9.81Q80.30 8.99 80.63 8.29Q80.95 7.59 81.51 7.08Q82.07 6.58 82.81 6.30Q83.55 6.02 84.38 6.02ZM84.38 6.83L84.38 6.83Q83.96 6.83 83.61 7.05Q83.26 7.27 83.01 7.66Q82.77 8.05 82.64 8.60Q82.50 9.16 82.50 9.83L82.50 9.83Q82.50 10.53 82.64 11.09Q82.77 11.65 83.01 12.04Q83.26 12.43 83.60 12.65Q83.94 12.87 84.38 12.87L84.38 12.87Q84.81 12.87 85.17 12.65Q85.53 12.43 85.78 12.03Q86.03 11.63 86.17 11.07Q86.31 10.51 86.31 9.83L86.31 9.83Q86.31 9.16 86.17 8.61Q86.03 8.06 85.78 7.67Q85.53 7.27 85.17 7.05Q84.81 6.83 84.38 6.83ZM92.30 13.72L90.09 7.97Q89.94 7.56 89.80 7.31Q89.66 7.07 89.51 6.94Q89.36 6.80 89.19 6.76Q89.01 6.72 88.77 6.72L88.77 6.72L88.77 6.16L92.96 6.16L92.96 6.72Q92.61 6.72 92.41 6.75Q92.20 6.78 92.10 6.83Q91.99 6.89 91.97 6.98Q91.94 7.07 91.94 7.18L91.94 7.18Q91.94 7.36 92.01 7.60Q92.08 7.84 92.18 8.08L92.18 8.08L93.51 11.75L93.56 11.75L95.06 8.09Q95.16 7.85 95.21 7.67Q95.27 7.48 95.27 7.32L95.27 7.32Q95.27 7.01 95.06 6.87Q94.85 6.73 94.32 6.72L94.32 6.72L94.32 6.16L97.41 6.16L97.41 6.72Q97.03 6.72 96.76 6.92Q96.49 7.11 96.19 7.78L96.19 7.78L93.58 13.72L92.30 13.72ZM101.01 6.02L101.01 11.28Q101.01 11.84 101.05 12.18Q101.09 12.52 101.22 12.70Q101.35 12.88 101.58 12.94Q101.82 13.01 102.23 13.02L102.23 13.02L102.23 13.58L97.82 13.58L97.82 13.02Q98.21 13.01 98.46 12.93Q98.70 12.85 98.83 12.68Q98.97 12.50 99.02 12.19Q99.06 11.87 99.06 11.38L99.06 11.38L99.06 9.66Q99.06 8.85 99.04 8.32Q99.01 7.80 98.97 7.60L98.97 7.60Q98.90 7.25 98.65 7.14Q98.41 7.03 97.76 7.03L97.76 7.03L97.76 6.55L101.01 6.02ZM98.95 3.05L98.95 3.05Q98.95 2.59 99.27 2.28Q99.58 1.96 100.03 1.96L100.03 1.96Q100.49 1.96 100.81 2.28Q101.12 2.59 101.12 3.05L101.12 3.05Q101.12 3.50 100.81 3.81Q100.49 4.13 100.03 4.13L100.03 4.13Q99.58 4.13 99.27 3.81Q98.95 3.50 98.95 3.05ZM109.63 11.79L110.03 12.28Q108.75 13.72 106.85 13.72L106.85 13.72Q105.98 13.72 105.27 13.45Q104.57 13.17 104.06 12.68Q103.56 12.18 103.28 11.49Q103.00 10.81 103.00 9.97L103.00 9.97Q103.00 9.10 103.29 8.38Q103.59 7.66 104.13 7.13Q104.66 6.61 105.40 6.31Q106.13 6.02 107.02 6.02L107.02 6.02Q108.50 6.02 109.33 6.82Q110.15 7.62 110.15 9.06L110.15 9.06Q110.15 9.28 110.08 9.33Q110.01 9.38 109.69 9.38L109.69 9.38L105.18 9.38Q105.13 9.51 105.13 9.84L105.13 9.84Q105.13 11.21 105.72 12.01Q106.32 12.81 107.34 12.81L107.34 12.81Q107.93 12.81 108.51 12.54Q109.09 12.28 109.63 11.79L109.63 11.79ZM105.28 8.60L107.31 8.60Q107.87 8.60 108.03 8.53Q108.19 8.47 108.19 8.23L108.19 8.23Q108.19 7.62 107.84 7.22Q107.49 6.83 106.96 6.83L106.96 6.83Q106.36 6.83 105.89 7.33Q105.42 7.83 105.28 8.60L105.28 8.60ZM112.15 13.09L111.85 13.58L111.41 13.58L111.41 11.03L112 11.03Q112.24 12.04 112.69 12.50Q113.13 12.96 113.85 12.96L113.85 12.96Q114.37 12.96 114.65 12.75Q114.94 12.53 114.94 12.15L114.94 12.15Q114.94 11.76 114.59 11.39Q114.24 11.02 113.46 10.60L113.46 10.60Q112.39 10.02 111.93 9.46Q111.47 8.89 111.47 8.18L111.47 8.18Q111.47 7.71 111.64 7.31Q111.82 6.92 112.12 6.62Q112.42 6.33 112.84 6.17Q113.26 6.01 113.75 6.01L113.75 6.01Q114.18 6.01 114.61 6.13Q115.04 6.26 115.36 6.48L115.36 6.48L115.61 6.15L115.98 6.15L115.98 8.26L115.43 8.26Q115.11 7.46 114.77 7.11Q114.42 6.76 113.93 6.76L113.93 6.76Q113.54 6.76 113.31 6.97Q113.08 7.18 113.08 7.53L113.08 7.53Q113.08 7.92 113.42 8.27Q113.76 8.62 114.56 9.04L114.56 9.04Q115.12 9.35 115.53 9.65Q115.93 9.94 116.19 10.24Q116.44 10.54 116.56 10.87Q116.68 11.20 116.68 11.58L116.68 11.58Q116.68 12.07 116.49 12.46Q116.31 12.85 115.98 13.13Q115.64 13.41 115.17 13.57Q114.70 13.72 114.13 13.72L114.13 13.72Q113.53 13.72 113.01 13.56Q112.49 13.40 112.15 13.09L112.15 13.09Z"></path></g><!----><!----></svg>